<svg xmlns="http://www.w3.org/2000/svg" viewBox="0 0 279.27 191.83"><defs><style>.cls-1,.cls-3{fill:none;}.cls-1{stroke:#023938;stroke-miterlimit:10;}.cls-2{fill:#09e3e0;}.cls-4{font-size:38.39px;fill:#d64b13;font-family:RobotoSlab-Bold, Roboto Slab;font-weight:700;}.cls-5{letter-spacing:0em;}.cls-6{letter-spacing:-0.01em;}</style></defs><g id="Layer_2" data-name="Layer 2"><g id="Layer_1-2" data-name="Layer 1"><line class="cls-1" x1="246.37" y1="38.29" x2="276.91" y2="38.29"/><path class="cls-2" d="M143.06,171.45l25.58-3.12V65.81H142.75V48.44L198.9,38.25V168.33l25.58,3.12v18.2H143.06Z"/><path class="cls-3" d="M55,94.19V133.6q0,18.32,5.36,26.62t15.75,8.32q10.2,0,15.5-8.32t5.3-26.62V94.19q0-18-5.41-26.36t-15.6-8.37a23.48,23.48,0,0,0-3.52.27L55.65,82.66A91.3,91.3,0,0,0,55,94.19Z"/><path class="cls-2" d="M113.27,51.72A44.84,44.84,0,0,0,88.65,37.39L72.36,59.73a23.48,23.48,0,0,1,3.52-.27q10.2,0,15.6,8.37t5.41,26.36V133.6q0,18.32-5.3,26.62t-15.5,8.32q-10.4,0-15.75-8.32T55,133.6V94.19a91.3,91.3,0,0,1,.67-11.53L24.72,125.08v5.61q0,30.06,13.83,45.6t37.54,15.54q23.5,0,37.28-15.54t13.78-45.6V97.31Q127.15,67.37,113.27,51.72Z"/><line class="cls-1" x1="0.4" y1="155.29" x2="113.4" y2="0.29"/><text class="cls-4" transform="translate(246.43 51.73) rotate(90)">Ca<tspan class="cls-5" x="45.96" y="0">m</tspan><tspan x="81.49" y="0">e</tspan><tspan class="cls-6" x="101.94" y="0">r</tspan><tspan x="117.72" y="0">a</tspan></text></g></g></svg>