<svg xmlns="http://www.w3.org/2000/svg" viewBox="0 0 299.35 191.83"><defs><style>.cls-1{fill:#09e3e0;}.cls-2,.cls-3{fill:none;}.cls-3{stroke:#023938;stroke-miterlimit:10;}.cls-4{font-size:41.92px;fill:#d64b13;font-family:RobotoSlab-Bold, Roboto Slab;font-weight:700;}</style></defs><g id="Layer_2" data-name="Layer 2"><g id="Layer_1-2" data-name="Layer 1"><path class="cls-1" d="M143,190.65V170.79l49-52.51Q202.56,106.12,207,97.74t4.47-15.54q0-9.57-5.14-15.65t-14.61-6.09q-10.52,0-16,7.13t-5.46,19H140.79l-.21-.62Q140.05,65.45,154,51.26t37.7-14.19q23.4,0,36.81,12.16T242,81.68a45.75,45.75,0,0,1-7.54,25.37q-7.53,11.64-25,30.36l-26.93,29.43.21.52H222l1.24-15h23.09v38.26Z"/><path class="cls-2" d="M55,94.19V133.6q0,18.32,5.36,26.62t15.75,8.32q10.2,0,15.5-8.32t5.3-26.62V94.19q0-18-5.41-26.36t-15.6-8.37a23.48,23.48,0,0,0-3.52.27L55.65,82.66A91.3,91.3,0,0,0,55,94.19Z"/><path class="cls-1" d="M113.27,51.72A44.84,44.84,0,0,0,88.65,37.39L72.36,59.73a23.48,23.48,0,0,1,3.52-.27q10.2,0,15.6,8.37t5.41,26.36V133.6q0,18.32-5.3,26.62t-15.5,8.32q-10.4,0-15.75-8.32T55,133.6V94.19a91.3,91.3,0,0,1,.67-11.53L24.72,125.08v5.61q0,30.06,13.83,45.6t37.54,15.54q23.5,0,37.28-15.54t13.78-45.6V97.31Q127.15,67.37,113.27,51.72Z"/><line class="cls-3" x1="0.4" y1="155.29" x2="113.4" y2="0.29"/><line class="cls-3" x1="263.42" y1="37.29" x2="296.76" y2="37.29"/><text class="cls-4" transform="translate(263.49 51.96) rotate(90)">Lenses</text></g></g></svg>