<svg xmlns="http://www.w3.org/2000/svg" viewBox="0 0 319.27 193.3"><defs><style>.cls-1{fill:none;stroke:#023938;stroke-miterlimit:10;}.cls-2{fill:#09e3e0;}.cls-3{font-size:38.39px;fill:#d64b13;font-family:RobotoSlab-Bold, Roboto Slab;font-weight:700;}.cls-4{letter-spacing:-0.01em;}</style></defs><g id="Layer_2" data-name="Layer 2"><g id="Layer_1-2" data-name="Layer 1"><line class="cls-1" x1="286.37" y1="8.29" x2="316.91" y2="8.29"/><path class="cls-2" d="M113.27,51.72A44.84,44.84,0,0,0,88.65,37.39L72.36,59.73a23.48,23.48,0,0,1,3.52-.27q10.2,0,15.6,8.37t5.41,26.36V133.6q0,18.32-5.3,26.62t-15.5,8.32q-10.4,0-15.75-8.32T55,133.6V94.19a91.3,91.3,0,0,1,.67-11.53L24.72,125.08v5.61q0,30.06,13.83,45.6t37.54,15.54q23.5,0,37.28-15.54t13.78-45.6V97.31Q127.15,67.37,113.27,51.72Z"/><line class="cls-1" x1="0.4" y1="155.29" x2="113.4" y2="0.29"/><text class="cls-3" transform="translate(286.43 21.73) rotate(90)">Exposu<tspan class="cls-4" x="135.32" y="0">r</tspan><tspan x="151.13" y="0">e</tspan></text><path class="cls-2" d="M176,100.65h17.19q10.9,0,16.15-5.71t5.24-15.88q0-9.23-5.24-14.79t-15.2-5.55a21.43,21.43,0,0,0-14.47,5A16.53,16.53,0,0,0,173.82,77H144.15l-.21-.63q-.63-17.93,13.73-29.57t35.65-11.63q23.69,0,37.8,11.32t14.1,32.29a32.46,32.46,0,0,1-6.29,18.93,41.85,41.85,0,0,1-17.3,14q12.68,4.52,19.34,13.84a36.4,36.4,0,0,1,6.66,21.7q0,21-15.26,33t-39.05,12q-21.28,0-36.54-11.27t-14.73-31.82l.21-.63h29.67A18.76,18.76,0,0,0,178.22,163q6.3,5.72,15.94,5.72,10.59,0,16.72-5.87T217,146.89q0-12.06-6-17.67t-17.78-5.61H176Z"/></g></g></svg>