<svg xmlns="http://www.w3.org/2000/svg" viewBox="0 0 235.63 102.67"><defs><style>.cls-1{fill:#023938;}</style></defs><g id="Layer_2" data-name="Layer 2"><g id="Layer_1-2" data-name="Layer 1"><path class="cls-1" d="M31.89,32.88a2,2,0,0,1,.72.14,1.94,1.94,0,0,1,.69.46l4,4.23a16.75,16.75,0,0,1-6.61,5.21,23.38,23.38,0,0,1-9.41,1.75A22.35,22.35,0,0,1,12.38,43,19.32,19.32,0,0,1,5.69,38.3a20.47,20.47,0,0,1-4.22-7.08A26.17,26.17,0,0,1,0,22.32a24.69,24.69,0,0,1,1.59-9A20.94,20.94,0,0,1,6.06,6.27,20.13,20.13,0,0,1,13,1.65,23.09,23.09,0,0,1,21.81,0a23.66,23.66,0,0,1,4.64.44,21.81,21.81,0,0,1,4.06,1.2A18.55,18.55,0,0,1,34,3.48a18.26,18.26,0,0,1,2.82,2.34l-3.42,4.59a4.38,4.38,0,0,1-.78.77,2,2,0,0,1-1.26.34,2.25,2.25,0,0,1-1-.24,11.16,11.16,0,0,1-1-.58L28.12,10A9,9,0,0,0,26.6,9.2a13.22,13.22,0,0,0-2.07-.59,14.25,14.25,0,0,0-2.78-.24,11.15,11.15,0,0,0-4.6.93A9.88,9.88,0,0,0,13.55,12a12.39,12.39,0,0,0-2.34,4.38,19.2,19.2,0,0,0-.83,5.92,18,18,0,0,0,.92,6,13.13,13.13,0,0,0,2.49,4.4,10.44,10.44,0,0,0,3.67,2.71,11,11,0,0,0,4.5.93,21.6,21.6,0,0,0,2.52-.13,11.46,11.46,0,0,0,2.13-.45,8.68,8.68,0,0,0,1.86-.84,11.79,11.79,0,0,0,1.77-1.34,3.53,3.53,0,0,1,.78-.49A2,2,0,0,1,31.89,32.88Z"/><path class="cls-1" d="M64.05.48,81,44.19H73.11A3.43,3.43,0,0,1,71,43.58,3.92,3.92,0,0,1,69.75,42l-2.58-7.62H50.55L48,42a3.67,3.67,0,0,1-1.19,1.52,3.29,3.29,0,0,1-2.11.67l-6.88.06M64.86,27.48l-4-12c-.3-.76-.62-1.65-1-2.68s-.68-2.15-1-3.35q-.45,1.83-1,3.39t-1,2.7l-4,11.91Z"/><path class="cls-1" d="M77.42.48h7.74c.44,0,.82,0,1.15,0a3,3,0,0,1,.89.18,2,2,0,0,1,.7.47,3.63,3.63,0,0,1,.62.88L99.77,24.21c.4.76.78,1.55,1.15,2.37s.73,1.66,1.07,2.52c.34-.88.69-1.74,1.06-2.58s.77-1.64,1.19-2.4L115.46,2a3.63,3.63,0,0,1,.61-.88,2,2,0,0,1,.71-.47,2.92,2.92,0,0,1,.88-.18c.33,0,.72,0,1.16,0h7.74V44.19h-8.94V19.05c0-.58,0-1.21,0-1.89s.09-1.37.17-2.07L106.22,37.56a3.83,3.83,0,0,1-1.46,1.59,4,4,0,0,1-2.08.54H101.3a4,4,0,0,1-2.09-.54,3.8,3.8,0,0,1-1.45-1.59L86.15,15c.06.72.11,1.43.15,2.12s.06,1.32.06,1.9V44.19"/><path class="cls-1" d="M135,.48h28.14v7.8H145.22v10.2H159V26H145.22V36.39h17.94v7.8"/><path class="cls-1" d="M169.4.48h14.22a29.13,29.13,0,0,1,8.08,1,15.17,15.17,0,0,1,5.46,2.71,10.29,10.29,0,0,1,3.08,4.11,13.62,13.62,0,0,1,1,5.16,13.85,13.85,0,0,1-.57,4A12.43,12.43,0,0,1,199,21a12.82,12.82,0,0,1-2.75,2.86,14.62,14.62,0,0,1-3.76,2.07,9.2,9.2,0,0,1,1.86,1.28A8.89,8.89,0,0,1,195.86,29l9.3,15.21H196a3.89,3.89,0,0,1-3.66-1.92l-7.26-12.69a3.5,3.5,0,0,0-1.14-1.18,3.55,3.55,0,0,0-1.8-.38h-2.58V44.19M183.62,21a10.41,10.41,0,0,0,3.52-.52,6.4,6.4,0,0,0,2.39-1.46,5.52,5.52,0,0,0,1.35-2.17,8.38,8.38,0,0,0,.42-2.69,5.63,5.63,0,0,0-1.88-4.5q-1.87-1.62-5.8-1.62h-4.08V21Z"/><path class="cls-1" d="M206.76,44.19a3.29,3.29,0,0,0,2.11-.67A3.67,3.67,0,0,0,210.06,42l2.58-7.62h16.62l2.3,6.81L235.63,25,226.14.48H215.76m-.78,27,4-11.91q.45-1.14,1-2.7t1-3.39c.34,1.2.68,2.32,1,3.35s.66,1.92,1,2.68l4,12Z"/><path class="cls-1" d="M41.73,58.48c-.44,0-.83,0-1.16,0a2.92,2.92,0,0,0-.88.18,2,2,0,0,0-.71.47,3.63,3.63,0,0,0-.61.88L27.15,82.12c-.42.76-.82,1.56-1.19,2.4s-.72,1.7-1.06,2.58c-.34-.86-.7-1.7-1.07-2.52s-.75-1.61-1.15-2.37L11.43,60a3.63,3.63,0,0,0-.62-.88,2,2,0,0,0-.7-.47,3,3,0,0,0-.89-.18c-.29,0-.64,0-1,0L.33,89.76v12.43H9.27V77.05c0-.58,0-1.22-.06-1.9s-.09-1.4-.15-2.12L20.67,95.56a3.8,3.8,0,0,0,1.45,1.59,4,4,0,0,0,2.09.54h1.38a4,4,0,0,0,2.08-.54,3.83,3.83,0,0,0,1.46-1.59L40.74,73.09c-.08.7-.14,1.39-.17,2.07s0,1.31,0,1.89v25.14h8.94V58.48Z"/><path class="cls-1" d="M100.83,80.32a23.49,23.49,0,0,1-1.64,8.82A20.77,20.77,0,0,1,87.43,101a26.09,26.09,0,0,1-18.58,0A20.81,20.81,0,0,1,57,89.14,24.68,24.68,0,0,1,57,71.5a21,21,0,0,1,4.62-7.08,21.38,21.38,0,0,1,7.19-4.71A24.45,24.45,0,0,1,78.15,58a24.12,24.12,0,0,1,9.28,1.73,21.43,21.43,0,0,1,7.16,4.72,21.08,21.08,0,0,1,4.6,7.08A23.41,23.41,0,0,1,100.83,80.32Zm-10.38,0a18.87,18.87,0,0,0-.84-5.83,12.39,12.39,0,0,0-2.42-4.4,10.4,10.4,0,0,0-3.85-2.76,13.27,13.27,0,0,0-5.19-1,13.49,13.49,0,0,0-5.24,1A10.39,10.39,0,0,0,69,70.09a12.37,12.37,0,0,0-2.41,4.4,20.79,20.79,0,0,0,0,11.7A12.33,12.33,0,0,0,69,90.58a10.25,10.25,0,0,0,3.87,2.75,13.68,13.68,0,0,0,5.24.94,13.45,13.45,0,0,0,5.19-.94,10.26,10.26,0,0,0,3.85-2.75,12.34,12.34,0,0,0,2.42-4.39A19,19,0,0,0,90.45,80.32Z"/><path class="cls-1" d="M106.8,58.48h17a25.09,25.09,0,0,1,9.28,1.65,21.21,21.21,0,0,1,7.16,4.56,20.31,20.31,0,0,1,4.6,6.92,24.06,24.06,0,0,1,0,17.46,20.45,20.45,0,0,1-4.6,6.93,20.91,20.91,0,0,1-7.16,4.56,25.29,25.29,0,0,1-9.28,1.63m12.3-21.87a19,19,0,0,0-.84-5.85,12.48,12.48,0,0,0-2.42-4.42A10.47,10.47,0,0,0,129,67.26a13.09,13.09,0,0,0-5.19-1H117V94.39h6.78a13.09,13.09,0,0,0,5.19-1,10.38,10.38,0,0,0,3.85-2.8,12.4,12.4,0,0,0,2.42-4.42A19.15,19.15,0,0,0,136.08,80.32Z"/><path class="cls-1" d="M152.46,58.48H180.6v7.8H162.66v10.2H176.4V84H162.66V94.39H180.6v7.8"/><path class="cls-1" d="M211,67.36a3.82,3.82,0,0,1-1,1.08,2.1,2.1,0,0,1-1.27.36,3.13,3.13,0,0,1-1.49-.43l-1.8-1a14.88,14.88,0,0,0-2.29-1,9.18,9.18,0,0,0-2.94-.44A6.34,6.34,0,0,0,196,67.2a4.12,4.12,0,0,0-1.39,3.28,3,3,0,0,0,.84,2.19,7.22,7.22,0,0,0,2.2,1.5,23.61,23.61,0,0,0,3.12,1.16c1.17.35,2.37.74,3.59,1.17A32,32,0,0,1,207.94,78a12,12,0,0,1,3.12,2.22,10.4,10.4,0,0,1,2.21,3.29,11.65,11.65,0,0,1,.84,4.66,15.2,15.2,0,0,1-1.05,5.67A13.31,13.31,0,0,1,210,98.46a14.13,14.13,0,0,1-4.92,3.09,18.38,18.38,0,0,1-6.64,1.12,21.35,21.35,0,0,1-4.16-.42,24.61,24.61,0,0,1-4.09-1.18,23.77,23.77,0,0,1-3.72-1.82,15.81,15.81,0,0,1-3-2.34l3-4.74a3,3,0,0,1,.94-.85,2.49,2.49,0,0,1,1.28-.35,3.4,3.4,0,0,1,1.81.57l2.07,1.26a16.91,16.91,0,0,0,2.66,1.26,10,10,0,0,0,3.54.57A6.74,6.74,0,0,0,203,93.42a4.64,4.64,0,0,0,1.53-3.86,3.64,3.64,0,0,0-.84-2.49,6.51,6.51,0,0,0-2.21-1.59,20.25,20.25,0,0,0-3.1-1.11c-1.16-.32-2.35-.67-3.57-1.06a26.12,26.12,0,0,1-3.57-1.44,11.29,11.29,0,0,1-3.11-2.25,10.52,10.52,0,0,1-2.2-3.48,13.85,13.85,0,0,1-.84-5.15,12.21,12.21,0,0,1,1-4.8A12.39,12.39,0,0,1,189,62a14.3,14.3,0,0,1,4.71-2.92,17.39,17.39,0,0,1,6.39-1.1,23.9,23.9,0,0,1,3.91.32,20.64,20.64,0,0,1,3.62.93,19.8,19.8,0,0,1,3.19,1.47,14.75,14.75,0,0,1,2.66,1.93Z"/></g></g></svg>