<svg xmlns="http://www.w3.org/2000/svg" viewBox="0 0 58.14 40.85"><g id="Layer_2" data-name="Layer 2"><g id="Layer_1-2" data-name="Layer 1"><path d="M8.89,7.53c0-.39,0-.76,0-1.12A1.45,1.45,0,0,1,10.31,5c1.34,0,2.67,0,4,0a1.45,1.45,0,0,1,1.47,1.5c0,.28,0,.57,0,.88a1.22,1.22,0,0,0,.3.06h6.09a1.84,1.84,0,0,0,1.48-.77c.55-.71,1.07-1.44,1.58-2.19A8.69,8.69,0,0,1,31.36.27a24.32,24.32,0,0,1,8.38.19,8.51,8.51,0,0,1,5.33,4c.44.69.89,1.37,1.39,2a2.92,2.92,0,0,0,.94.77,1.27,1.27,0,0,0,2-.64C50.1,5.21,50.44,5,52,5.4a14.6,14.6,0,0,1,4.49,1.94,5.68,5.68,0,0,1,.8.67,1,1,0,0,1,.22,1.39,3.34,3.34,0,0,0-.15,3.29,12.38,12.38,0,0,1,.77,4.37c.09,5.77.05,11.55,0,17.32a6.33,6.33,0,0,1-6.46,6.46q-22.56,0-45.11,0A6.34,6.34,0,0,1,0,34.3c0-5.35.07-10.69,0-16A10.52,10.52,0,0,1,8.89,7.53ZM29,39.87H51.31a5.43,5.43,0,0,0,5.83-5.78c0-5.2,0-10.4,0-15.59a24.35,24.35,0,0,0-.25-3.73C56.42,12,55,9.84,52.15,9a12.59,12.59,0,0,0-3.44-.53,4,4,0,0,1-3.5-2c-.5-.77-1-1.54-1.55-2.28a7.3,7.3,0,0,0-4.27-2.81,27.93,27.93,0,0,0-5.63-.32,8.39,8.39,0,0,0-7.84,4.16,22,22,0,0,1-1.51,2.08,3.06,3.06,0,0,1-2.54,1.14c-3.81,0-7.63,0-11.44,0A9.33,9.33,0,0,0,1,17.82q0,8.13,0,16.27a5.43,5.43,0,0,0,5.82,5.78ZM56,10.23a5.51,5.51,0,0,1,.39-.9c.28-.45.14-.73-.26-1a12.9,12.9,0,0,0-5.08-2.06.6.6,0,0,0-.5.18,7.63,7.63,0,0,0-.52,1C53.49,8.18,54.07,8.45,56,10.23ZM9.87,7.41h4.92V7c0-1,0-1-1-1h-3c-.84,0-.9.07-.9.92Z"/><path d="M24.42,33.58l-.87.48a2.32,2.32,0,0,1-2.94-.59A12.65,12.65,0,0,1,19.16,31a2.34,2.34,0,0,1,1.26-3A.92.92,0,0,0,21,26.77a13.77,13.77,0,0,1,26.14-8.13.81.81,0,0,0,.94.6,10.14,10.14,0,0,1,1.35,0,2.41,2.41,0,0,1,2.3,2.31c0,1.9,0,3.8,0,5.71a2.39,2.39,0,0,1-2.32,2.28c-.71,0-1.57-.22-2.11.1s-.71,1.19-1.09,1.79a13.79,13.79,0,0,1-21.39,2.49Zm-2.73-9.49a12.79,12.79,0,0,0,25.57.11,12.79,12.79,0,0,0-25.57-.11Zm26.09-3.85a3.43,3.43,0,0,0,.06.4,14.14,14.14,0,0,1,0,7,5.78,5.78,0,0,0-.1,1c.57,0,1,0,1.51,0a1.44,1.44,0,0,0,1.45-1.45c0-1.82,0-3.64,0-5.46a1.4,1.4,0,0,0-1.22-1.4A16.57,16.57,0,0,0,47.78,20.24Zm-26.5,8.38c-1.41.63-1.64,1.35-.83,2.75l.58,1a1.52,1.52,0,0,0,2.58.46Z"/><path d="M10.86,36.91H9.93a2.9,2.9,0,0,1-.06-.41c0-4.95,0-9.9,0-14.85a3.8,3.8,0,0,1,3.69-3.86,4,4,0,0,0,3.67-3.69c.06-1,0-2,0-3L17.06,11l.9-.32a7.63,7.63,0,0,1,.2.79,7.83,7.83,0,0,1-.54,4.68,4.45,4.45,0,0,1-4,2.56,2.93,2.93,0,0,0-2.79,3c0,4.81,0,9.62,0,14.43Z"/><path d="M9.76,9.88a3.78,3.78,0,0,1,2.87,1.22,2.61,2.61,0,0,1-.56,4,3.77,3.77,0,0,1-4.42,0,2.59,2.59,0,0,1-1.19-2.64A3.08,3.08,0,0,1,8.82,10,6.35,6.35,0,0,1,9.76,9.88Zm.13,4.93a2.3,2.3,0,0,0,2.44-1.94,2.26,2.26,0,0,0-2.45-2,2.26,2.26,0,0,0-2.47,2A2.29,2.29,0,0,0,9.89,14.81Z"/><path d="M28.21,6.25,29,5.71A4,4,0,0,0,32,6.84c2.31,0,4.62,0,6.93-.16A7.46,7.46,0,0,0,41,5.91l0-.2.76.53a3.25,3.25,0,0,1-2,1.31,9.59,9.59,0,0,1-2.05.31c-2.27,0-4.55-.05-6.81-.19A3.4,3.4,0,0,1,28.21,6.25Z"/><path d="M34.52,35a10.81,10.81,0,1,1,10.8-10.73A10.84,10.84,0,0,1,34.52,35Zm0-1a9.83,9.83,0,1,0-9.86-9.84A9.86,9.86,0,0,0,34.5,34Z"/><path d="M28.18,23.63h-.89C27,20.89,29.6,16.86,34,16.91v.93a5.88,5.88,0,0,0-4.05,1.72A5.78,5.78,0,0,0,28.18,23.63Z"/></g></g></svg>