<svg xmlns="http://www.w3.org/2000/svg" viewBox="0 0 298.68 96.24"><defs><style>.cls-1{fill:#023938;}</style></defs><g id="Layer_2" data-name="Layer 2"><g id="Layer_1-2" data-name="Layer 1"><path class="cls-1" d="M0,.46H27.24V8H9.87v9.88h13.3v7.26H9.87V35.22H27.24v7.55"/><path class="cls-1" d="M42.42,21,29.33.46h9.81a3.11,3.11,0,0,1,1.41.25,2.21,2.21,0,0,1,.8.83L49.77,15.8a7,7,0,0,1,.33-.73c.13-.23.27-.47.43-.73L57.9,1.68a3.13,3.13,0,0,1,.86-.93A2,2,0,0,1,59.88.46h9.4L56,20.59,69.57,42.77H59.76a2.42,2.42,0,0,1-1.55-.46,3.6,3.6,0,0,1-1-1.11L48.78,26.4a5.93,5.93,0,0,1-.52,1.1l-7.9,13.7a6.09,6.09,0,0,1-1,1.08,2,2,0,0,1-1.42.49"/><path class="cls-1" d="M73.35.46H88.27A24.77,24.77,0,0,1,96,1.52a14.85,14.85,0,0,1,5.29,2.92,11.41,11.41,0,0,1,3.06,4.39,14.8,14.8,0,0,1,1,5.46,16,16,0,0,1-1,5.8,11.48,11.48,0,0,1-3.1,4.53,14.57,14.57,0,0,1-5.3,2.95,24.21,24.21,0,0,1-7.6,1.06H83.16V42.77m5.11-21.54q3.84,0,5.52-1.83a7.29,7.29,0,0,0,1.69-5.11A7.71,7.71,0,0,0,95,11.64a5.37,5.37,0,0,0-1.32-2,6,6,0,0,0-2.24-1.32,9.88,9.88,0,0,0-3.21-.47H83.16V21.23Z"/><path class="cls-1" d="M151.81,21.6a22.84,22.84,0,0,1-1.58,8.54A20.85,20.85,0,0,1,145.77,37a20.52,20.52,0,0,1-6.93,4.57,25.2,25.2,0,0,1-18,0A20.61,20.61,0,0,1,113.9,37a20.41,20.41,0,0,1-4.47-6.87,22.64,22.64,0,0,1-1.59-8.54,22.63,22.63,0,0,1,1.59-8.53,20.17,20.17,0,0,1,4.47-6.86,20.71,20.71,0,0,1,6.95-4.55,25.13,25.13,0,0,1,18,0,20.82,20.82,0,0,1,6.93,4.57,20.6,20.6,0,0,1,4.46,6.86A22.74,22.74,0,0,1,151.81,21.6Zm-10.05,0A18.29,18.29,0,0,0,141,16a11.85,11.85,0,0,0-2.34-4.26A10.14,10.14,0,0,0,134.88,9a12.84,12.84,0,0,0-5-.93,13,13,0,0,0-5.07.93A10.13,10.13,0,0,0,121,11.7,12.16,12.16,0,0,0,118.7,16a18.29,18.29,0,0,0-.81,5.64,18.46,18.46,0,0,0,.81,5.68A12.25,12.25,0,0,0,121,31.54a10,10,0,0,0,3.75,2.65,13.21,13.21,0,0,0,5.07.92,13,13,0,0,0,5-.92,10,10,0,0,0,3.73-2.65A11.93,11.93,0,0,0,141,27.28,18.46,18.46,0,0,0,141.76,21.6Z"/><path class="cls-1" d="M181,9.06a3.67,3.67,0,0,1-.91,1,2,2,0,0,1-1.24.35,3,3,0,0,1-1.43-.42l-1.75-.94a15.42,15.42,0,0,0-2.22-.95,8.88,8.88,0,0,0-2.84-.42,6.15,6.15,0,0,0-4.11,1.18,4,4,0,0,0-1.35,3.18,2.94,2.94,0,0,0,.81,2.12,6.88,6.88,0,0,0,2.13,1.45,23.17,23.17,0,0,0,3,1.12c1.14.34,2.29.72,3.47,1.13A31.11,31.11,0,0,1,178,19.37a11.43,11.43,0,0,1,3,2.15,9.83,9.83,0,0,1,2.14,3.18,11.33,11.33,0,0,1,.81,4.51,14.84,14.84,0,0,1-1,5.49A12.92,12.92,0,0,1,180,39.16a13.79,13.79,0,0,1-4.76,3,18,18,0,0,1-6.44,1.09,20.78,20.78,0,0,1-4-.41,23.35,23.35,0,0,1-4-1.15,23.08,23.08,0,0,1-3.6-1.75,15.5,15.5,0,0,1-2.93-2.27l2.9-4.59a3,3,0,0,1,.91-.82,2.34,2.34,0,0,1,1.24-.34,3.35,3.35,0,0,1,1.75.55c.6.37,1.26.78,2,1.22a15,15,0,0,0,2.57,1.22,9.58,9.58,0,0,0,3.42.56,6.56,6.56,0,0,0,4.16-1.18,4.5,4.5,0,0,0,1.48-3.73,3.49,3.49,0,0,0-.82-2.41,6.16,6.16,0,0,0-2.13-1.54,19.08,19.08,0,0,0-3-1.08c-1.12-.31-2.27-.65-3.45-1a25,25,0,0,1-3.46-1.39,10.89,10.89,0,0,1-3-2.18,10.3,10.3,0,0,1-2.14-3.37,13.38,13.38,0,0,1-.81-5,11.8,11.8,0,0,1,1-4.64,12,12,0,0,1,2.82-4,13.73,13.73,0,0,1,4.56-2.83A16.75,16.75,0,0,1,170.45,0a23.55,23.55,0,0,1,3.79.3,20.16,20.16,0,0,1,3.5.91,19,19,0,0,1,3.09,1.42A13.79,13.79,0,0,1,183.4,4.5Z"/><path class="cls-1" d="M199.05.46v25a12.9,12.9,0,0,0,.57,4,8.39,8.39,0,0,0,1.64,3,7.07,7.07,0,0,0,2.63,1.89,9.88,9.88,0,0,0,7.05,0,7.13,7.13,0,0,0,2.63-1.88,8.21,8.21,0,0,0,1.64-3,13,13,0,0,0,.57-4V.46h9.81V25.52a19.63,19.63,0,0,1-1.26,7.15,16,16,0,0,1-3.62,5.6A16.16,16.16,0,0,1,215,41.93a22.64,22.64,0,0,1-15.18,0,16.16,16.16,0,0,1-5.72-3.66,15.78,15.78,0,0,1-3.6-5.6,19.63,19.63,0,0,1-1.25-7.15"/><path class="cls-1" d="M233.26.46H247a28.23,28.23,0,0,1,7.83,1A14.52,14.52,0,0,1,260.13,4a9.93,9.93,0,0,1,3,4,13.2,13.2,0,0,1,.93,5,13.7,13.7,0,0,1-.55,3.89,11.87,11.87,0,0,1-1.63,3.38,12.48,12.48,0,0,1-2.66,2.78,14.15,14.15,0,0,1-3.64,2,8.6,8.6,0,0,1,3.31,3l9,14.72H259a3.77,3.77,0,0,1-3.54-1.86l-7-12.28a3.51,3.51,0,0,0-1.11-1.15,3.45,3.45,0,0,0-1.74-.36h-2.5V42.77m4-22.41a10,10,0,0,0,3.41-.51,6.18,6.18,0,0,0,2.31-1.41,5.33,5.33,0,0,0,1.31-2.11,8.1,8.1,0,0,0,.41-2.6,5.45,5.45,0,0,0-1.82-4.35Q250.83,7.81,247,7.81h-4V20.36Z"/><path class="cls-1" d="M271.44.46h27.24V8H281.31v9.88h13.3v7.26h-13.3V35.22h17.37v7.55"/><polygon class="cls-1" points="2.83 53.47 0.87 61.25 9.04 61.25 18.86 95.77 18.86 61.25 30.77 61.25 30.77 53.47 2.83 53.47"/><path class="cls-1" d="M35.73,53.46H49.49a28.23,28.23,0,0,1,7.83.95A14.52,14.52,0,0,1,62.6,57a9.93,9.93,0,0,1,3,4,13.2,13.2,0,0,1,.93,5A13.35,13.35,0,0,1,66,69.9a11.87,11.87,0,0,1-1.63,3.38,12.43,12.43,0,0,1-2.65,2.78,14.22,14.22,0,0,1-3.65,2,9,9,0,0,1,1.8,1.23,8.64,8.64,0,0,1,1.51,1.76l9,14.72H61.46a3.75,3.75,0,0,1-3.54-1.86l-7-12.28a3.51,3.51,0,0,0-1.11-1.15A3.42,3.42,0,0,0,48,80.12h-2.5V95.77m4-22.41a10.1,10.1,0,0,0,3.42-.51,6.22,6.22,0,0,0,2.3-1.41,5.33,5.33,0,0,0,1.31-2.11,8.1,8.1,0,0,0,.41-2.6,5.45,5.45,0,0,0-1.82-4.35q-1.81-1.58-5.62-1.57h-4V73.36Z"/><path class="cls-1" d="M83.79,53.46V95.77H73.91"/><path class="cls-1" d="M113.55,53.46l16.38,42.31h-7.61a3.36,3.36,0,0,1-2.06-.59,3.83,3.83,0,0,1-1.19-1.53l-2.5-7.37H100.48L98,93.65a3.6,3.6,0,0,1-1.15,1.47,3.24,3.24,0,0,1-2,.65H87.13m27.2-16.17L110.41,68c-.29-.73-.6-1.6-.93-2.6s-.65-2.07-1-3.23c-.29,1.18-.6,2.27-.93,3.28s-.64,1.87-.93,2.61L102.75,79.6Z"/><path class="cls-1" d="M133.27,53.46h5.17a8.05,8.05,0,0,1,1.07.06,2.57,2.57,0,0,1,1.45.67,8.38,8.38,0,0,1,.73.78l20.12,25.41c-.1-.81-.16-1.6-.2-2.36s-.06-1.49-.06-2.17V53.46h8.65V95.77h-5.11a4.47,4.47,0,0,1-1.9-.36,4.6,4.6,0,0,1-1.52-1.26L141.72,68.91c.07.76.13,1.49.16,2.19s0,1.37,0,2V95.77"/><path class="cls-1" d="M213.76,73.85V91.71a22.27,22.27,0,0,1-6.93,3.45,27.1,27.1,0,0,1-7.68,1.08,26.51,26.51,0,0,1-9.51-1.64,22.13,22.13,0,0,1-7.33-4.53,19.85,19.85,0,0,1-4.7-6.86A22,22,0,0,1,176,74.6a23.32,23.32,0,0,1,1.57-8.69A19.43,19.43,0,0,1,182,59.07a20.14,20.14,0,0,1,7.05-4.47,25.4,25.4,0,0,1,9.25-1.6,27,27,0,0,1,5,.44,24.08,24.08,0,0,1,4.28,1.19,19.42,19.42,0,0,1,3.59,1.8,19.13,19.13,0,0,1,2.9,2.26L211.2,63a2.73,2.73,0,0,1-1.72,1.25,3,3,0,0,1-2.28-.53c-.78-.46-1.51-.86-2.2-1.2a12.91,12.91,0,0,0-2.1-.83,13.42,13.42,0,0,0-2.27-.46A21.42,21.42,0,0,0,198,61.1a12.29,12.29,0,0,0-5,1,10.65,10.65,0,0,0-3.76,2.75,12.35,12.35,0,0,0-2.4,4.25A17.21,17.21,0,0,0,186,74.6a17.85,17.85,0,0,0,.93,6A12.28,12.28,0,0,0,189.56,85a11.18,11.18,0,0,0,4.06,2.74,14,14,0,0,0,5.24,1,13.78,13.78,0,0,0,3.21-.35,17.34,17.34,0,0,0,2.8-.93V81h-4.18a2,2,0,0,1-1.45-.49,1.65,1.65,0,0,1-.52-1.25"/><path class="cls-1" d="M230.16,53.46V87.93h15.68v7.84H220.35"/><path class="cls-1" d="M250.84,53.46h27.24V61H260.71v9.88H274v7.26h-13.3V88.22h17.37v7.55"/></g></g></svg>