<svg xmlns="http://www.w3.org/2000/svg" viewBox="0 0 407.22 71.1"><defs><style>.cls-1{isolation:isolate;}.cls-2,.cls-5,.cls-6{mix-blend-mode:multiply;}.cls-2{font-size:25px;fill:#023938;font-family:Lato-Light, Lato;font-weight:300;}.cls-3{letter-spacing:-0.06em;}.cls-4{fill:none;stroke:#023938;stroke-miterlimit:10;}.cls-5{fill:#09e3e0;}.cls-6{fill:#d64b13;}</style></defs><g class="cls-1"><g id="Layer_2" data-name="Layer 2"><g id="Layer_1-2" data-name="Layer 1"><text class="cls-2" transform="translate(99.22 66.45)">PH<tspan class="cls-3" x="33.74" y="0">OT</tspan><tspan x="65.29" y="0">OGRAPHY TU</tspan><tspan class="cls-3" x="222.32" y="0">T</tspan><tspan x="235.43" y="0">ORIAL</tspan></text><path class="cls-4" d="M0,69H12.87V50.44h6.7a32,32,0,0,0,10-1.39,19.24,19.24,0,0,0,6.95-3.87,15.29,15.29,0,0,0,4.08-5.94,21.23,21.23,0,0,0,1.33-7.61,19.34,19.34,0,0,0-1.3-7.16,14.88,14.88,0,0,0-4-5.75,19.39,19.39,0,0,0-6.93-3.83A32.25,32.25,0,0,0,19.57,13.5m7.24,24.83c-1.47,1.6-3.89,2.4-7.24,2.4h-6.7V23.13h6.7a13.13,13.13,0,0,1,4.21.61,7.8,7.8,0,0,1,2.93,1.74,7.11,7.11,0,0,1,1.74,2.68A10.06,10.06,0,0,1,29,31.63,9.55,9.55,0,0,1,26.81,38.33Z"/><path class="cls-4" d="M58.69,4.71V50M45.82,10.71H30.21V.5h44.1"/><polygon class="cls-5" points="36.02 5.04 75.12 10.39 76.44 0.79 29.77 1.21 36.02 5.04"/><path class="cls-6" d="M30.71,21.48a7.8,7.8,0,0,0-2.93-1.74,13.13,13.13,0,0,0-4.21-.61h-6.7v17.6h6.7c3.35,0,5.77-.8,7.24-2.4A9.55,9.55,0,0,0,33,27.63a10.06,10.06,0,0,0-.57-3.47A7.11,7.11,0,0,0,30.71,21.48Z"/></g></g></g></svg>