<svg xmlns="http://www.w3.org/2000/svg" viewBox="0 0 43.81 35.39"><g id="Layer_2" data-name="Layer 2"><g id="Layer_1-2" data-name="Layer 1"><path d="M22.28,35.39l-16.37,0a5.89,5.89,0,0,1-5.9-6Q0,19,0,8.56a6,6,0,0,1,6-6H37.6a6,6,0,0,1,6.2,6.19q0,10.29,0,20.58a5.94,5.94,0,0,1-5.95,6ZM6.49,3.54C3,3.54,1,5.54,1,9q0,8.65,0,17.33v2.5c0,3.54,2,5.57,5.53,5.57h31.2a4.93,4.93,0,0,0,5.15-5.09q0-10.21,0-20.43a5,5,0,0,0-5.39-5.35H6.49Z"/><path d="M21.75,29.37a10.45,10.45,0,0,1-.2-20.9h.12a10.45,10.45,0,1,1,.18,20.9ZM21.8,9.45a9.5,9.5,0,0,0,0,19h.14a9.58,9.58,0,0,0,9.46-9.59,9.46,9.46,0,0,0-9.47-9.41Z"/><path d="M26.79,19.92c-.1,0-.38,0-.44-.68a5.07,5.07,0,0,0-4.74-4.83c-.79-.09-.77-.35-.76-.51s0-.42.73-.42a5.92,5.92,0,0,1,5.69,5.7c0,.71-.26.72-.43.73Z"/><path d="M27.2,1.42l-.66.48a3.56,3.56,0,0,0-2.72-1c-2,0-4.08,0-6.11.14a6.69,6.69,0,0,0-1.83.68l0,.18-.67-.47A2.84,2.84,0,0,1,17,.27,8.7,8.7,0,0,1,18.86,0c2,0,4,0,6,.17A3,3,0,0,1,27.2,1.42Z"/></g></g></svg>