<svg xmlns="http://www.w3.org/2000/svg" viewBox="0 0 245.17 125.16"><defs><style>.cls-1{fill:#023938;}</style></defs><g id="Layer_2" data-name="Layer 2"><g id="Layer_1-2" data-name="Layer 1"><path class="cls-1" d="M28.68,7.58a9.7,9.7,0,0,0-2.63-3.76,12.61,12.61,0,0,0-4.54-2.51A21,21,0,0,0,14.92.4H2.1l8.43,36.34V24.59h4.39a20.77,20.77,0,0,0,6.52-.91A12.48,12.48,0,0,0,26,21.15a10,10,0,0,0,2.67-3.89,13.84,13.84,0,0,0,.87-5A12.69,12.69,0,0,0,28.68,7.58Zm-9,9.08q-1.44,1.57-4.73,1.57H10.53V6.71h4.39a8.35,8.35,0,0,1,2.75.4,5.07,5.07,0,0,1,1.92,1.13A4.62,4.62,0,0,1,20.73,10a6.55,6.55,0,0,1,.37,2.27A6.22,6.22,0,0,1,19.65,16.66Z"/><polyline class="cls-1" points="33.82 36.74 42.3 36.74 42.3 21.38 57.07 21.38 57.07 36.74 65.55 36.74 65.55 0.4 57.07 0.4 57.07 15.59 42.3 15.59"/><path class="cls-1" d="M106.89,11.25a17.64,17.64,0,0,0-3.83-5.89,18,18,0,0,0-6-3.93,21.65,21.65,0,0,0-15.45,0,17.76,17.76,0,0,0-6,3.92,17.4,17.4,0,0,0-3.85,5.88,19.71,19.71,0,0,0-1.35,7.34,19.66,19.66,0,0,0,1.35,7.33,17.41,17.41,0,0,0,9.82,9.83,21.72,21.72,0,0,0,15.45,0,17.34,17.34,0,0,0,9.78-9.83,19.66,19.66,0,0,0,1.36-7.33A19.59,19.59,0,0,0,106.89,11.25Zm-8,12.18a10.43,10.43,0,0,1-2,3.66,8.45,8.45,0,0,1-3.2,2.28,12.29,12.29,0,0,1-8.67,0,8.45,8.45,0,0,1-3.22-2.28,10.43,10.43,0,0,1-2-3.66,15.91,15.91,0,0,1-.69-4.87,15.82,15.82,0,0,1,.69-4.85,10.43,10.43,0,0,1,2-3.66A8.58,8.58,0,0,1,85,7.76a12.15,12.15,0,0,1,8.67,0,8.59,8.59,0,0,1,3.2,2.29,10.43,10.43,0,0,1,2,3.66,15.81,15.81,0,0,1,.7,4.85A15.9,15.9,0,0,1,98.92,23.43Z"/><polyline class="cls-1" points="128.23 36.74 128.23 7.08 138.45 7.08 138.45 0.4 109.57 0.4 109.57 7.08 119.8 7.08"/><path class="cls-1" d="M168.61,21.8a13,13,0,0,1-.4,1.63,10.43,10.43,0,0,1-2,3.66,8.45,8.45,0,0,1-3.2,2.28,12.29,12.29,0,0,1-8.67,0,8.45,8.45,0,0,1-3.22-2.28,10.43,10.43,0,0,1-2-3.66,15.9,15.9,0,0,1-.7-4.87,15.81,15.81,0,0,1,.7-4.85,10.43,10.43,0,0,1,2-3.66,8.58,8.58,0,0,1,3.22-2.29A10.73,10.73,0,0,1,158.07,7L153.53.59a18.49,18.49,0,0,0-2.58.83,17.76,17.76,0,0,0-6,3.92,17.4,17.4,0,0,0-3.85,5.88,19.71,19.71,0,0,0-1.36,7.34,19.66,19.66,0,0,0,1.36,7.33A17.41,17.41,0,0,0,151,35.72a21.72,21.72,0,0,0,15.45,0,17.65,17.65,0,0,0,5.95-3.93,17,17,0,0,0,1.8-2.19Z"/><path class="cls-1" d="M19.55,61.16V65.8A1.4,1.4,0,0,0,20,66.87a1.77,1.77,0,0,0,1.25.42h3.59v5.52a15.67,15.67,0,0,1-2.4.79,11.79,11.79,0,0,1-2.76.3,12,12,0,0,1-4.5-.81,9.57,9.57,0,0,1-3.49-2.35,10.59,10.59,0,0,1-2.26-3.8,15.26,15.26,0,0,1-.8-5.13,14.86,14.86,0,0,1,.72-4.76,10.84,10.84,0,0,1,2.06-3.65A9.28,9.28,0,0,1,14.64,51a10.59,10.59,0,0,1,4.27-.83,19.82,19.82,0,0,1,2.29.12,13.19,13.19,0,0,1,1.95.4,12.45,12.45,0,0,1,1.8.71c.59.29,1.22.64,1.89,1a2.65,2.65,0,0,0,2,.45,2.36,2.36,0,0,0,1.48-1.08l2.44-3.71a16.53,16.53,0,0,0-2.49-2,16.71,16.71,0,0,0-3.08-1.54,20.35,20.35,0,0,0-3.68-1,23.06,23.06,0,0,0-4.26-.37,22,22,0,0,0-8,1.37A17.63,17.63,0,0,0,5.2,48.46a16.78,16.78,0,0,0-3.85,5.88A20.09,20.09,0,0,0,0,61.81,18.93,18.93,0,0,0,1.42,69.2a17.25,17.25,0,0,0,4,5.89A19,19,0,0,0,11.76,79a22.67,22.67,0,0,0,8.17,1.41,23.29,23.29,0,0,0,6.6-.93,19,19,0,0,0,5.94-3"/><path class="cls-1" d="M60.13,67.34a7.61,7.61,0,0,0-1.29-1.51,8,8,0,0,0-1.55-1.06,11.78,11.78,0,0,0,3.13-1.72,10.41,10.41,0,0,0,3.68-5.28,12.1,12.1,0,0,0-.32-7.64,8.62,8.62,0,0,0-2.56-3.41,12.54,12.54,0,0,0-4.54-2.26A24.23,24.23,0,0,0,50,43.65H38.14L46.57,80V66.55h2.14a2.94,2.94,0,0,1,1.5.31,3,3,0,0,1,.95,1l6,10.55a3.23,3.23,0,0,0,3,1.6h6.54l.42-1.1ZM56,57.28a4.56,4.56,0,0,1-1.12,1.81,5.27,5.27,0,0,1-2,1.21,8.71,8.71,0,0,1-2.93.43H46.57V50H50a7.21,7.21,0,0,1,4.82,1.35,4.66,4.66,0,0,1,1.56,3.74A6.77,6.77,0,0,1,56,57.28Z"/><path class="cls-1" d="M67.19,78.89l.68,1.1h5.48a2.77,2.77,0,0,0,1.76-.56,3.13,3.13,0,0,0,1-1.26l2.14-6.34H92.06l2.15,6.34a3.22,3.22,0,0,0,1,1.31A2.86,2.86,0,0,0,97,80h6.53L89.47,43.65M80.19,66.1l3.34-9.91c.25-.63.51-1.38.8-2.24s.55-1.8.8-2.82c.28,1,.56,1.93.84,2.78s.55,1.6.8,2.23l3.37,10Z"/><polygon class="cls-1" points="66.77 79.99 67.87 79.99 67.19 78.89 66.77 79.99"/><path class="cls-1" d="M133,50.83a9.73,9.73,0,0,0-2.63-3.76,12.61,12.61,0,0,0-4.54-2.51,21.09,21.09,0,0,0-6.6-.91H106.4L114.83,80V67.84h4.39a20.73,20.73,0,0,0,6.52-.91,12.52,12.52,0,0,0,4.56-2.53A10.06,10.06,0,0,0,133,60.51a13.62,13.62,0,0,0,.88-5A12.9,12.9,0,0,0,133,50.83Zm-9,9.08q-1.44,1.58-4.74,1.57h-4.39V50h4.39a8.42,8.42,0,0,1,2.76.4,5.07,5.07,0,0,1,1.92,1.13A4.6,4.6,0,0,1,125,53.25a6.55,6.55,0,0,1,.38,2.27A6.26,6.26,0,0,1,124,59.91Z"/><polyline class="cls-1" points="169.85 43.65 161.37 43.65 161.37 58.84 146.61 58.84 146.61 43.65 138.13 43.65 138.13 79.99 146.61 79.99 146.61 64.63 161.37 64.63"/><path class="cls-1" d="M194.3,80V66.17l2.64-4.52-4.46-6.28-.33.67c-.43.82-.81,1.59-1.13,2.31s-.61,1.44-.86,2.16q-.41-1-.93-2.13c-.35-.73-.74-1.5-1.17-2.34l-5.14-10.57a4.05,4.05,0,0,0-1.06-1.31,2.68,2.68,0,0,0-1.73-.51H172.7l13.17,22.52"/><polygon class="cls-1" points="20.54 124.77 20.54 95.97 30.47 95.97 30.47 89.48 2.42 89.48 2.42 95.97 12.35 95.97 12.35 115.9 18.66 124.78 20.54 124.77"/><path class="cls-1" d="M49.34,118.31a7.44,7.44,0,0,0,2.94-.55,5.93,5.93,0,0,0,2.19-1.56,7,7,0,0,0,1.37-2.48,11,11,0,0,0,.47-3.33v-2.1L64.5,95.36v15a16.2,16.2,0,0,1-1.06,6,13.37,13.37,0,0,1-3,4.67,13.52,13.52,0,0,1-4.77,3,17.31,17.31,0,0,1-6.32,1.09A17.37,17.37,0,0,1,43,124.07a13.52,13.52,0,0,1-4.77-3,13.37,13.37,0,0,1-3-4.67,16.62,16.62,0,0,1-1-6V89.48h8.19v20.88a10.93,10.93,0,0,0,.47,3.33,7.1,7.1,0,0,0,1.37,2.5,6,6,0,0,0,2.19,1.57A7.46,7.46,0,0,0,49.34,118.31Z"/><path class="cls-1" d="M78.13,96H68.2v-6.5H96.25V96H86.32v28.79"/><path class="cls-1" d="M134.21,107.12a19,19,0,0,1-1.32,7.12,16.8,16.8,0,0,1-9.5,9.54,21.07,21.07,0,0,1-15,0,16.82,16.82,0,0,1-9.53-9.54,19.86,19.86,0,0,1,0-14.24,16.82,16.82,0,0,1,3.73-5.72,17.24,17.24,0,0,1,5.8-3.8,19.73,19.73,0,0,1,7.51-1.38,19.44,19.44,0,0,1,7.49,1.39,17.43,17.43,0,0,1,5.78,3.81,17,17,0,0,1,3.72,5.72A18.91,18.91,0,0,1,134.21,107.12Zm-8.38,0a15.26,15.26,0,0,0-.68-4.71,9.9,9.9,0,0,0-2-3.55,8.51,8.51,0,0,0-3.11-2.23,11.75,11.75,0,0,0-8.42,0,8.42,8.42,0,0,0-3.13,2.23,10.21,10.21,0,0,0-2,3.55,17,17,0,0,0,0,9.44,10.21,10.21,0,0,0,2,3.55,8.28,8.28,0,0,0,3.13,2.22,12,12,0,0,0,8.42,0,8.37,8.37,0,0,0,3.11-2.22,9.9,9.9,0,0,0,2-3.55A15.34,15.34,0,0,0,125.83,107.12Z"/><path class="cls-1" d="M163.91,112.34a7.17,7.17,0,0,0-1.26-1.46,7,7,0,0,0-1.5-1,12.15,12.15,0,0,0,3-1.67,10.36,10.36,0,0,0,2.22-2.32,9.92,9.92,0,0,0,1.35-2.82,11.08,11.08,0,0,0,.46-3.24,10.93,10.93,0,0,0-.77-4.17A8.4,8.4,0,0,0,165,92.31a12.31,12.31,0,0,0-4.41-2.19,23.38,23.38,0,0,0-6.53-.79H142.55v21.82l8.19,11.51V111.57h2.08a2.88,2.88,0,0,1,1.45.3,2.75,2.75,0,0,1,.92,1l5.86,10.24a3.15,3.15,0,0,0,3,1.55h7.41Zm-4-9.77a4.49,4.49,0,0,1-1.09,1.76,5.11,5.11,0,0,1-1.92,1.17,8.56,8.56,0,0,1-2.85.42h-3.29V95.46H154a7.06,7.06,0,0,1,4.69,1.31,4.53,4.53,0,0,1,1.51,3.63A6.63,6.63,0,0,1,159.89,102.57Z"/><path class="cls-1" d="M182.64,89.33v35.29H174.4"/><path class="cls-1" d="M207.46,89.33l13.66,35.29h-6.34a2.76,2.76,0,0,1-1.72-.49,3.17,3.17,0,0,1-1-1.28L210,116.7H196.56l-2.08,6.15a3,3,0,0,1-1,1.23,2.69,2.69,0,0,1-1.71.54h-6.39m22.7-13.49-3.27-9.66c-.25-.62-.5-1.34-.78-2.17s-.55-1.73-.82-2.7c-.25,1-.5,1.9-.78,2.74s-.53,1.56-.77,2.18l-3.25,9.61Z"/><path class="cls-1" d="M232.09,89.33v28.75h13.08v6.54H223.91"/></g></g></svg>