<svg xmlns="http://www.w3.org/2000/svg" viewBox="0 0 43.81 37.33"><g id="Layer_2" data-name="Layer 2"><g id="Layer_1-2" data-name="Layer 1"><path d="M22.28,37.33l-16.37,0a5.89,5.89,0,0,1-5.9-6Q0,20.92,0,10.5a6,6,0,0,1,6-6H37.6a6,6,0,0,1,6.2,6.19q0,10.29,0,20.58a5.94,5.94,0,0,1-5.95,6ZM6.49,5.48C3,5.48,1,7.48,1,11q0,8.67,0,17.33v2.5c0,3.54,2,5.57,5.53,5.57h31.2a4.93,4.93,0,0,0,5.15-5.09q0-10.22,0-20.43a5,5,0,0,0-5.39-5.35H6.49Z"/><path d="M12.05,1h-3A.89.89,0,0,1,8.54.8.45.45,0,0,1,8.43.49c0-.41.46-.48.72-.48h5.74a.79.79,0,0,1,.55.18.39.39,0,0,1,.11.31c0,.32-.22.48-.62.48Z"/><path d="M26.75,31.31a10.45,10.45,0,0,1-.2-20.9h.12a10.45,10.45,0,1,1,.18,20.9Zm.05-19.92a9.5,9.5,0,0,0,0,19h.14a9.58,9.58,0,0,0,9.46-9.59,9.46,9.46,0,0,0-9.47-9.41Z"/><path d="M8,12.24c-.3,0-.6,0-.9,0a.79.79,0,0,1-.57-.2.4.4,0,0,1-.1-.3c0-.3.24-.46.67-.46h4.59c.61,0,.61.33.61.46s0,.47-.61.51Z"/><path d="M31.79,21.86c-.1,0-.38,0-.44-.68a5.07,5.07,0,0,0-4.74-4.83c-.79-.09-.77-.35-.76-.51s0-.42.73-.42a5.92,5.92,0,0,1,5.69,5.7c0,.71-.26.72-.43.73Z"/></g></g></svg>