<svg xmlns="http://www.w3.org/2000/svg" viewBox="0 0 45.73 38.44"><g id="Layer_2" data-name="Layer 2"><g id="Layer_1-2" data-name="Layer 1"><path d="M7.61,32.41c-.42.23-.81.47-1.22.67a3.24,3.24,0,0,1-4.11-.82,18.22,18.22,0,0,1-2-3.47C-.44,27.17.29,25.5,2,24.55A1.3,1.3,0,0,0,2.8,22.9,19.21,19.21,0,0,1,39.27,11.56a1.14,1.14,0,0,0,1.32.84,11.8,11.8,0,0,1,1.88,0,3.35,3.35,0,0,1,3.21,3.22c.06,2.65.06,5.31,0,8a3.31,3.31,0,0,1-3.22,3.19c-1,.05-2.2-.3-3,.14s-1,1.66-1.53,2.49A19.24,19.24,0,0,1,8.12,32.89ZM3.79,19.16a18,18,0,0,0,17.7,17.91A17.83,17.83,0,1,0,3.79,19.16Zm36.42-5.37a5.35,5.35,0,0,0,.08.56,19.74,19.74,0,0,1,0,9.72,8,8,0,0,0-.13,1.34c.79,0,1.45,0,2.1,0a2,2,0,0,0,2-2c0-2.54,0-5.08,0-7.62a1.94,1.94,0,0,0-1.7-2A21.43,21.43,0,0,0,40.21,13.79Zm-37,11.69c-2,.89-2.29,1.89-1.16,3.85l.82,1.4c1,1.62,2.28,1.81,3.6.64Z"/><path d="M21.7,34.33a15.09,15.09,0,1,1,15.07-15A15.14,15.14,0,0,1,21.7,34.33Zm0-1.37A13.72,13.72,0,1,0,7.92,19.22,13.78,13.78,0,0,0,21.68,33Z"/><path d="M12.85,18.52H11.61c-.46-3.82,3.23-9.44,9.29-9.38v1.3a8.25,8.25,0,0,0-5.65,2.4A8.1,8.1,0,0,0,12.85,18.52Z"/></g></g></svg>